<svg xmlns="http://www.w3.org/2000/svg" xmlns:xlink="http://www.w3.org/1999/xlink" contentStyleType="text/css" data-diagram-type="CLASS" height="267px" preserveAspectRatio="none" style="width:336px;height:267px;background:#FFFFFF;" version="1.1" viewBox="0 0 336 267" width="336px" zoomAndPan="magnify"><defs/><g><!--class ?--><g class="entity" data-entity="&#26354;" data-source-line="1" data-uid="ent0002" id="entity_&#26354;"><rect fill="#F1F1F1" height="113.1875" rx="2.5" ry="2.5" style="stroke:#181818;stroke-width:0.5;" width="157.5162" x="96.19" y="7"/><ellipse cx="163.6981" cy="23" fill="#ADD1B2" rx="11" ry="11" style="stroke:#181818;stroke-width:1;"/><path d="M167.8075,29 L160.0888,29 L160.0888,16.6094 L167.8075,16.6094 L167.8075,18.7656 L162.5419,18.7656 L162.5419,21.4375 L167.3075,21.4375 L167.3075,23.5938 L162.5419,23.5938 L162.5419,26.8438 L167.8075,26.8438 L167.8075,29 Z " fill="#000000"/><text fill="#000000" font-family="sans-serif" font-size="14" lengthAdjust="spacing" textLength="13.9999" x="184.1981" y="27.8467">&#26354;</text><line style="stroke:#181818;stroke-width:0.5;" x1="97.19" x2="252.7062" y1="39" y2="39"/><ellipse cx="107.19" cy="52.6484" fill="none" rx="3" ry="3" style="stroke:#038048;stroke-width:1;"/><text fill="#000000" font-family="sans-serif" font-size="14" lengthAdjust="spacing" textLength="61.9062" x="116.19" y="55.9951">&#26354;ID [PK]</text><line style="stroke:#181818;stroke-width:1;" x1="97.19" x2="252.7062" y1="63.2969" y2="63.2969"/><text fill="#000000" font-family="sans-serif" font-size="14" lengthAdjust="spacing" textLength="55.9998" x="116.19" y="80.292">&#12479;&#12452;&#12488;&#12523;</text><polygon fill="none" points="107.19,88.2422,111.19,92.2422,107.19,96.2422,103.19,92.2422" style="stroke:#B38D22;stroke-width:1;"/><text fill="#000000" font-family="sans-serif" font-size="14" lengthAdjust="spacing" textLength="131.5162" x="116.19" y="96.5889">&#12450;&#12540;&#12486;&#12451;&#12473;&#12488;ID [FK]</text><polygon fill="none" points="107.19,104.5391,111.19,108.5391,107.19,112.5391,103.19,108.5391" style="stroke:#B38D22;stroke-width:1;"/><text fill="#000000" font-family="sans-serif" font-size="14" lengthAdjust="spacing" textLength="103.5164" x="116.19" y="112.8857">&#12450;&#12523;&#12496;&#12512;ID [FK]</text></g><!--class ??????--><g class="entity" data-entity="&#12450;&#12540;&#12486;&#12451;&#12473;&#12488;" data-source-line="8" data-uid="ent0003" id="entity_&#12450;&#12540;&#12486;&#12451;&#12473;&#12488;"><rect fill="#F1F1F1" height="80.5938" rx="2.5" ry="2.5" style="stroke:#181818;stroke-width:0.5;" width="157.9059" x="7" y="180.19"/><ellipse cx="40.8578" cy="196.19" fill="#ADD1B2" rx="11" ry="11" style="stroke:#181818;stroke-width:1;"/><path d="M44.9672,202.19 L37.2484,202.19 L37.2484,189.7994 L44.9672,189.7994 L44.9672,191.9556 L39.7016,191.9556 L39.7016,194.6275 L44.4672,194.6275 L44.4672,196.7838 L39.7016,196.7838 L39.7016,200.0338 L44.9672,200.0338 L44.9672,202.19 Z " fill="#000000"/><text fill="#000000" font-family="sans-serif" font-size="14" lengthAdjust="spacing" textLength="83.9996" x="59.0484" y="201.0367">&#12450;&#12540;&#12486;&#12451;&#12473;&#12488;</text><line style="stroke:#181818;stroke-width:0.5;" x1="8" x2="163.9059" y1="212.19" y2="212.19"/><ellipse cx="18" cy="225.8384" fill="none" rx="3" ry="3" style="stroke:#038048;stroke-width:1;"/><text fill="#000000" font-family="sans-serif" font-size="14" lengthAdjust="spacing" textLength="131.9059" x="27" y="229.1851">&#12450;&#12540;&#12486;&#12451;&#12473;&#12488;ID [PK]</text><text fill="#000000" font-family="sans-serif" font-size="14" lengthAdjust="spacing" textLength="97.9996" x="27" y="245.482">&#12450;&#12540;&#12486;&#12451;&#12473;&#12488;&#21517;</text><line style="stroke:#181818;stroke-width:0.5;" x1="8" x2="163.9059" y1="252.7838" y2="252.7838"/></g><!--class ????--><g class="entity" data-entity="&#12450;&#12523;&#12496;&#12512;" data-source-line="12" data-uid="ent0004" id="entity_&#12450;&#12523;&#12496;&#12512;"><rect fill="#F1F1F1" height="80.5938" rx="2.5" ry="2.5" style="stroke:#181818;stroke-width:0.5;" width="129.906" x="200" y="180.19"/><ellipse cx="233.8578" cy="196.19" fill="#ADD1B2" rx="11" ry="11" style="stroke:#181818;stroke-width:1;"/><path d="M237.9672,202.19 L230.2484,202.19 L230.2484,189.7994 L237.9672,189.7994 L237.9672,191.9556 L232.7016,191.9556 L232.7016,194.6275 L237.4672,194.6275 L237.4672,196.7838 L232.7016,196.7838 L232.7016,200.0338 L237.9672,200.0338 L237.9672,202.19 Z " fill="#000000"/><text fill="#000000" font-family="sans-serif" font-size="14" lengthAdjust="spacing" textLength="55.9998" x="252.0484" y="201.0367">&#12450;&#12523;&#12496;&#12512;</text><line style="stroke:#181818;stroke-width:0.5;" x1="201" x2="328.906" y1="212.19" y2="212.19"/><ellipse cx="211" cy="225.8384" fill="none" rx="3" ry="3" style="stroke:#038048;stroke-width:1;"/><text fill="#000000" font-family="sans-serif" font-size="14" lengthAdjust="spacing" textLength="103.906" x="220" y="229.1851">&#12450;&#12523;&#12496;&#12512;ID [PK]</text><text fill="#000000" font-family="sans-serif" font-size="14" lengthAdjust="spacing" textLength="69.9997" x="220" y="245.482">&#12450;&#12523;&#12496;&#12512;&#21517;</text><line style="stroke:#181818;stroke-width:0.5;" x1="201" x2="328.906" y1="252.7838" y2="252.7838"/></g><!--link ? to ??????--><g class="link" data-entity-1="&#26354;" data-entity-2="&#12450;&#12540;&#12486;&#12451;&#12473;&#12488;" data-source-line="16" data-uid="lnk5" id="link_&#26354;_&#12450;&#12540;&#12486;&#12451;&#12473;&#12488;"><path codeLine="16" d="M133.8546,136.1184 C122.5046,155.8784 122.9344,155.1228 112.5444,173.2128" fill="none" id="&#26354;-&#12450;&#12540;&#12486;&#12451;&#12473;&#12488;" style="stroke:#181818;stroke-width:1;"/><line style="stroke:#181818;stroke-width:1;" x1="138.8354" x2="137.6172" y1="127.4471" y2="117.5215"/><line style="stroke:#181818;stroke-width:1;" x1="138.8354" x2="148.0228" y1="127.4471" y2="123.4985"/><line style="stroke:#181818;stroke-width:1;" x1="138.8354" x2="142.82" y1="127.4471" y2="120.51"/><ellipse cx="135.8469" cy="132.6499" fill="none" rx="4" ry="4" style="stroke:#181818;stroke-width:1;"/><line style="stroke:#181818;stroke-width:1;" x1="114.0208" x2="107.0836" y1="178.6736" y2="174.6892"/><line style="stroke:#181818;stroke-width:1;" x1="115.5149" x2="108.5777" y1="176.0721" y2="172.0878"/><line style="stroke:#181818;stroke-width:1;" x1="112.5444" x2="108.56" y1="173.2128" y2="180.15"/></g><!--link ? to ????--><g class="link" data-entity-1="&#26354;" data-entity-2="&#12450;&#12523;&#12496;&#12512;" data-source-line="17" data-uid="lnk6" id="link_&#26354;_&#12450;&#12523;&#12496;&#12512;"><path codeLine="17" d="M211.4588,127.4273 C222.9388,147.1873 224.0393,149.0932 234.5593,167.1832" fill="none" id="&#26354;-&#12450;&#12523;&#12496;&#12512;" style="stroke:#181818;stroke-width:1;"/><line style="stroke:#181818;stroke-width:1;" x1="211.4588" x2="202.252" y1="127.4273" y2="123.5241"/><line style="stroke:#181818;stroke-width:1;" x1="211.4588" x2="212.628" y1="127.4273" y2="117.4959"/><line style="stroke:#181818;stroke-width:1;" x1="211.4588" x2="207.44" y1="127.4273" y2="120.51"/><line style="stroke:#181818;stroke-width:1;" x1="209.0048" x2="215.9221" y1="131.166" y2="127.1473"/><line style="stroke:#181818;stroke-width:1;" x1="236.5702" x2="242.1" y1="170.641" y2="180.15"/><ellipse cx="236.5702" cy="170.641" fill="none" rx="4" ry="4" style="stroke:#181818;stroke-width:1;"/><line style="stroke:#181818;stroke-width:1;" x1="243.547" x2="236.6313" y1="174.6813" y2="178.703"/></g><!--SRC=[IyqhoIofL7WsUvD2DPS246Y3s9uk2j41th5W0LrTCFMuQV_ZfYMFcpiUDwy62oW3XHOzRjxpkBdjSTFYnqqxWN8WVMvGVL3vrO-R9pnkNW2JgULAXTY8gHdk0Epcmjo3AVjqGY-QkL1BKKr4SWcAML1nY2cWWAZDrzMjgS5Y4KIsHbStlmP5Am00]--></g></svg>