<svg xmlns="http://www.w3.org/2000/svg" xmlns:xlink="http://www.w3.org/1999/xlink" contentStyleType="text/css" data-diagram-type="CLASS" height="316px" preserveAspectRatio="none" style="width:364px;height:316px;background:#FFFFFF;" version="1.1" viewBox="0 0 364 316" width="364px" zoomAndPan="magnify"><defs/><g><!--class GameObject--><g class="entity" data-entity="GameObject" data-source-line="1" data-uid="ent0002" id="entity_GameObject"><rect fill="#F1F1F1" height="145.7813" rx="2.5" ry="2.5" style="stroke:#181818;stroke-width:0.5;" width="157.5162" x="140.15" y="7"/><ellipse cx="172.3588" cy="23" fill="#A9DCDF" rx="11" ry="11" style="stroke:#181818;stroke-width:1;"/><path d="M172.4682,18.3438 L171.3119,23.4219 L173.6401,23.4219 L172.4682,18.3438 Z M170.9838,16.1094 L173.9682,16.1094 L177.3276,28.5 L174.8744,28.5 L174.1088,25.4375 L170.8276,25.4375 L170.0776,28.5 L167.6401,28.5 L170.9838,16.1094 Z " fill="#000000"/><text fill="#000000" font-family="sans-serif" font-size="14" font-style="italic" lengthAdjust="spacing" textLength="87.2744" x="190.183" y="27.8467">GameObject</text><line style="stroke:#181818;stroke-width:0.5;" x1="141.15" x2="296.6662" y1="39" y2="39"/><polygon fill="none" points="151.15,47.6484,155.15,51.6484,151.15,55.6484,147.15,51.6484" style="stroke:#B38D22;stroke-width:1;"/><text fill="#000000" font-family="sans-serif" font-size="14" lengthAdjust="spacing" textLength="67.5938" x="160.15" y="55.9951">height:int</text><polygon fill="none" points="151.15,63.9453,155.15,67.9453,151.15,71.9453,147.15,67.9453" style="stroke:#B38D22;stroke-width:1;"/><text fill="#000000" font-family="sans-serif" font-size="14" lengthAdjust="spacing" textLength="61.5576" x="160.15" y="72.292">width:int</text><polygon fill="none" points="151.15,80.2422,155.15,84.2422,151.15,88.2422,147.15,84.2422" style="stroke:#B38D22;stroke-width:1;"/><text fill="#000000" font-family="sans-serif" font-size="14" lengthAdjust="spacing" textLength="77.7246" x="160.15" y="88.5889">coord_x:int</text><polygon fill="none" points="151.15,96.5391,155.15,100.5391,151.15,104.5391,147.15,100.5391" style="stroke:#B38D22;stroke-width:1;"/><text fill="#000000" font-family="sans-serif" font-size="14" lengthAdjust="spacing" textLength="77.7246" x="160.15" y="104.8857">coord_y:int</text><line style="stroke:#181818;stroke-width:1;" x1="141.15" x2="296.6662" y1="112.1875" y2="112.1875"/><polygon fill="none" points="151.15,120.8359,155.15,124.8359,151.15,128.8359,147.15,124.8359" style="stroke:#B38D22;stroke-width:1;"/><text fill="#000000" font-family="sans-serif" font-size="14" lengthAdjust="spacing" textLength="131.5162" x="160.15" y="129.1826">&#12450;&#12540;&#12486;&#12451;&#12473;&#12488;ID [FK]</text><polygon fill="none" points="151.15,137.1328,155.15,141.1328,151.15,145.1328,147.15,141.1328" style="stroke:#B38D22;stroke-width:1;"/><text fill="#000000" font-family="sans-serif" font-size="14" lengthAdjust="spacing" textLength="103.5164" x="160.15" y="145.4795">&#12450;&#12523;&#12496;&#12512;ID [FK]</text></g><!--class Board--><g class="entity" data-entity="Board" data-source-line="10" data-uid="ent0003" id="entity_Board"><rect fill="#F1F1F1" height="96.8906" rx="2.5" ry="2.5" style="stroke:#181818;stroke-width:0.5;" width="231.8096" x="7" y="212.78"/><ellipse cx="97.959" cy="228.78" fill="#ADD1B2" rx="11" ry="11" style="stroke:#181818;stroke-width:1;"/><path d="M100.9277,234.4206 Q100.3496,234.7175 99.709,234.8581 Q99.0684,235.0144 98.3652,235.0144 Q95.8652,235.0144 94.5371,233.3738 Q93.2246,231.7175 93.2246,228.5925 Q93.2246,225.4675 94.5371,223.8113 Q95.8652,222.155 98.3652,222.155 Q99.0684,222.155 99.709,222.3113 Q100.3652,222.4675 100.9277,222.7644 L100.9277,225.4831 Q100.3027,224.905 99.709,224.6394 Q99.1152,224.3581 98.4902,224.3581 Q97.1465,224.3581 96.459,225.4363 Q95.7715,226.4988 95.7715,228.5925 Q95.7715,230.6863 96.459,231.7644 Q97.1465,232.8269 98.4902,232.8269 Q99.1152,232.8269 99.709,232.5613 Q100.3027,232.28 100.9277,231.7019 L100.9277,234.4206 Z " fill="#000000"/><text fill="#000000" font-family="sans-serif" font-size="14" lengthAdjust="spacing" textLength="41.3916" x="118.459" y="233.6267">Board</text><line style="stroke:#181818;stroke-width:0.5;" x1="8" x2="237.8096" y1="244.78" y2="244.78"/><ellipse cx="18" cy="258.4284" fill="none" rx="3" ry="3" style="stroke:#038048;stroke-width:1;"/><text fill="#000000" font-family="sans-serif" font-size="14" lengthAdjust="spacing" textLength="131.9059" x="27" y="261.7751">&#12450;&#12540;&#12486;&#12451;&#12473;&#12488;ID [PK]</text><line style="stroke:#181818;stroke-width:1;" x1="8" x2="237.8096" y1="269.0769" y2="269.0769"/><ellipse cx="18" cy="282.7253" fill="#84BE84" rx="3" ry="3" style="stroke:#038048;stroke-width:1;"/><text fill="#000000" font-family="sans-serif" font-size="14" lengthAdjust="spacing" textLength="101.876" x="27" y="286.072">display():None</text><ellipse cx="18" cy="299.0222" fill="#84BE84" rx="3" ry="3" style="stroke:#038048;stroke-width:1;"/><text fill="#000000" font-family="sans-serif" font-size="14" lengthAdjust="spacing" textLength="205.8096" x="27" y="302.3689">play(turn:str, order:list):None</text></g><!--class Disk--><g class="entity" data-entity="Disk" data-source-line="16" data-uid="ent0004" id="entity_Disk"><rect fill="#F1F1F1" height="64.2969" rx="2.5" ry="2.5" style="stroke:#181818;stroke-width:0.5;" width="83.7295" x="274.04" y="229.08"/><ellipse cx="298.7862" cy="245.08" fill="#ADD1B2" rx="11" ry="11" style="stroke:#181818;stroke-width:1;"/><path d="M301.7549,250.7206 Q301.1768,251.0175 300.5362,251.1581 Q299.8956,251.3144 299.1924,251.3144 Q296.6924,251.3144 295.3643,249.6738 Q294.0518,248.0175 294.0518,244.8925 Q294.0518,241.7675 295.3643,240.1113 Q296.6924,238.455 299.1924,238.455 Q299.8956,238.455 300.5362,238.6113 Q301.1924,238.7675 301.7549,239.0644 L301.7549,241.7831 Q301.1299,241.205 300.5362,240.9394 Q299.9424,240.6581 299.3174,240.6581 Q297.9737,240.6581 297.2862,241.7363 Q296.5987,242.7988 296.5987,244.8925 Q296.5987,246.9863 297.2862,248.0644 Q297.9737,249.1269 299.3174,249.1269 Q299.9424,249.1269 300.5362,248.8613 Q301.1299,248.58 301.7549,248.0019 L301.7549,250.7206 Z " fill="#000000"/><text fill="#000000" font-family="sans-serif" font-size="14" lengthAdjust="spacing" textLength="30.0713" x="314.952" y="249.9267">Disk</text><line style="stroke:#181818;stroke-width:0.5;" x1="275.04" x2="356.7695" y1="261.08" y2="261.08"/><ellipse cx="285.04" cy="274.7284" fill="none" rx="3" ry="3" style="stroke:#038048;stroke-width:1;"/><text fill="#000000" font-family="sans-serif" font-size="14" lengthAdjust="spacing" textLength="57.7295" x="294.04" y="278.0751">color:str</text><line style="stroke:#181818;stroke-width:0.5;" x1="275.04" x2="356.7695" y1="285.3769" y2="285.3769"/></g><!--reverse link GameObject to Board--><g class="link" data-entity-1="GameObject" data-entity-2="Board" data-source-line="19" data-uid="lnk5" id="link_GameObject_Board"><path codeLine="19" d="M171.7747,168.9291 C161.0947,188.8791 158.27,194.16 148.53,212.36" fill="none" id="GameObject-backto-Board" style="stroke:#181818;stroke-width:1;"/><polygon fill="none" points="180.27,153.06,166.4849,166.0973,177.0644,171.7609,180.27,153.06" style="stroke:#181818;stroke-width:1;"/></g><!--reverse link GameObject to Disk--><g class="link" data-entity-1="GameObject" data-entity-2="Disk" data-source-line="20" data-uid="lnk6" id="link_GameObject_Disk"><path codeLine="20" d="M266.5014,168.8936 C280.7114,195.1736 287.5,207.7 298.82,228.64" fill="none" id="GameObject-backto-Disk" style="stroke:#181818;stroke-width:1;"/><polygon fill="none" points="257.94,153.06,261.2236,171.7474,271.7793,166.0397,257.94,153.06" style="stroke:#181818;stroke-width:1;"/></g><!--SRC=[IqmgBYbAJ2vHICv9B2vMS4_CJVLFoae52bHpAG21ia96QcPwHebLPbu9LA0yCwKa0ucVd9zVb19VWI5I2HVHrOLAF6vQzBXvp-FcjiTDYnytxNpStE7feX3jvXsBBB_wSVE4nyqBO3ArN12dEUKd5gL0NQMDmwG0g4bG2xKLKZAB2t8IApKqhVpoyrAXWc2HajAYF2kWttKKW6vDBRBAoImkWQg2sUYIMPmDjp0vFoU_2AG1A8qKIZOrkheGfs68WhG30000]--></g></svg>