<svg xmlns="http://www.w3.org/2000/svg" xmlns:xlink="http://www.w3.org/1999/xlink" contentStyleType="text/css" data-diagram-type="CLASS" height="316px" preserveAspectRatio="none" style="width:453px;height:316px;background:#FFFFFF;" version="1.1" viewBox="0 0 453 316" width="453px" zoomAndPan="magnify"><defs/><g><!--class GameObject--><g class="entity" data-entity="GameObject" data-source-line="1" data-uid="ent0002" id="entity_GameObject"><rect fill="#F1F1F1" height="113.1875" rx="2.5" ry="2.5" style="stroke:#181818;stroke-width:0.5;" width="119.2744" x="198.37" y="7"/><ellipse cx="213.37" cy="23" fill="#A9DCDF" rx="11" ry="11" style="stroke:#181818;stroke-width:1;"/><path d="M213.4794,18.3438 L212.3231,23.4219 L214.6513,23.4219 L213.4794,18.3438 Z M211.995,16.1094 L214.9794,16.1094 L218.3388,28.5 L215.8856,28.5 L215.12,25.4375 L211.8388,25.4375 L211.0888,28.5 L208.6513,28.5 L211.995,16.1094 Z " fill="#000000"/><text fill="#000000" font-family="sans-serif" font-size="14" font-style="italic" lengthAdjust="spacing" textLength="87.2744" x="227.37" y="27.8467">GameObject</text><line style="stroke:#181818;stroke-width:0.5;" x1="199.37" x2="316.6444" y1="39" y2="39"/><polygon fill="none" points="209.37,47.6484,213.37,51.6484,209.37,55.6484,205.37,51.6484" style="stroke:#B38D22;stroke-width:1;"/><text fill="#000000" font-family="sans-serif" font-size="14" lengthAdjust="spacing" textLength="67.5938" x="218.37" y="55.9951">height:int</text><polygon fill="none" points="209.37,63.9453,213.37,67.9453,209.37,71.9453,205.37,67.9453" style="stroke:#B38D22;stroke-width:1;"/><text fill="#000000" font-family="sans-serif" font-size="14" lengthAdjust="spacing" textLength="61.5576" x="218.37" y="72.292">width:int</text><polygon fill="none" points="209.37,80.2422,213.37,84.2422,209.37,88.2422,205.37,84.2422" style="stroke:#B38D22;stroke-width:1;"/><text fill="#000000" font-family="sans-serif" font-size="14" lengthAdjust="spacing" textLength="77.7246" x="218.37" y="88.5889">coord_x:int</text><polygon fill="none" points="209.37,96.5391,213.37,100.5391,209.37,104.5391,205.37,100.5391" style="stroke:#B38D22;stroke-width:1;"/><text fill="#000000" font-family="sans-serif" font-size="14" lengthAdjust="spacing" textLength="77.7246" x="218.37" y="104.8857">coord_y:int</text><line style="stroke:#181818;stroke-width:1;" x1="199.37" x2="316.6444" y1="112.1875" y2="112.1875"/></g><!--class Board--><g class="entity" data-entity="Board" data-source-line="8" data-uid="ent0003" id="entity_Board"><rect fill="#F1F1F1" height="129.4844" rx="2.5" ry="2.5" style="stroke:#181818;stroke-width:0.5;" width="262.0176" x="9" y="180.19"/><ellipse cx="115.063" cy="196.19" fill="#ADD1B2" rx="11" ry="11" style="stroke:#181818;stroke-width:1;"/><path d="M118.0317,201.8306 Q117.4536,202.1275 116.813,202.2681 Q116.1724,202.4244 115.4692,202.4244 Q112.9692,202.4244 111.6411,200.7838 Q110.3286,199.1275 110.3286,196.0025 Q110.3286,192.8775 111.6411,191.2213 Q112.9692,189.565 115.4692,189.565 Q116.1724,189.565 116.813,189.7213 Q117.4692,189.8775 118.0317,190.1744 L118.0317,192.8931 Q117.4067,192.315 116.813,192.0494 Q116.2192,191.7681 115.5942,191.7681 Q114.2505,191.7681 113.563,192.8463 Q112.8755,193.9088 112.8755,196.0025 Q112.8755,198.0963 113.563,199.1744 Q114.2505,200.2369 115.5942,200.2369 Q116.2192,200.2369 116.813,199.9713 Q117.4067,199.69 118.0317,199.1119 L118.0317,201.8306 Z " fill="#000000"/><text fill="#000000" font-family="sans-serif" font-size="14" lengthAdjust="spacing" textLength="41.3916" x="135.563" y="201.0367">Board</text><line style="stroke:#181818;stroke-width:0.5;" x1="10" x2="270.0176" y1="212.19" y2="212.19"/><polygon fill="none" points="20,220.8384,24,224.8384,20,228.8384,16,224.8384" style="stroke:#B38D22;stroke-width:1;"/><text fill="#000000" font-family="sans-serif" font-size="14" lengthAdjust="spacing" textLength="130.9971" x="29" y="229.1851">black_list:list[Disk]</text><polygon fill="none" points="20,237.1353,24,241.1353,20,245.1353,16,241.1353" style="stroke:#B38D22;stroke-width:1;"/><text fill="#000000" font-family="sans-serif" font-size="14" lengthAdjust="spacing" textLength="132.1523" x="29" y="245.482">white_list:list[Disk]</text><line style="stroke:#181818;stroke-width:1;" x1="10" x2="270.0176" y1="252.7838" y2="252.7838"/><polygon fill="#FFFF44" points="20,261.4322,24,265.4322,20,269.4322,16,265.4322" style="stroke:#B38D22;stroke-width:1;"/><text fill="#000000" font-family="sans-serif" font-size="14" lengthAdjust="spacing" textLength="93.1465" x="29" y="269.7789">is_safe():bool</text><ellipse cx="20" cy="282.7291" fill="#84BE84" rx="3" ry="3" style="stroke:#038048;stroke-width:1;"/><text fill="#000000" font-family="sans-serif" font-size="14" lengthAdjust="spacing" textLength="101.876" x="29" y="286.0757">display():None</text><ellipse cx="20" cy="299.0259" fill="#84BE84" rx="3" ry="3" style="stroke:#038048;stroke-width:1;"/><text fill="#000000" font-family="sans-serif" font-size="14" lengthAdjust="spacing" textLength="236.0176" x="29" y="302.3726">play(player:str, order:tuple):None</text></g><!--class Disk--><g class="entity" data-entity="Disk" data-source-line="16" data-uid="ent0004" id="entity_Disk"><rect fill="#F1F1F1" height="96.8906" rx="2.5" ry="2.5" style="stroke:#181818;stroke-width:0.5;" width="140.7275" x="305.65" y="196.48"/><ellipse cx="356.7281" cy="212.48" fill="#ADD1B2" rx="11" ry="11" style="stroke:#181818;stroke-width:1;"/><path d="M359.6969,218.1206 Q359.1188,218.4175 358.4781,218.5581 Q357.8375,218.7144 357.1344,218.7144 Q354.6344,218.7144 353.3063,217.0738 Q351.9938,215.4175 351.9938,212.2925 Q351.9938,209.1675 353.3063,207.5113 Q354.6344,205.855 357.1344,205.855 Q357.8375,205.855 358.4781,206.0113 Q359.1344,206.1675 359.6969,206.4644 L359.6969,209.1831 Q359.0719,208.605 358.4781,208.3394 Q357.8844,208.0581 357.2594,208.0581 Q355.9156,208.0581 355.2281,209.1363 Q354.5406,210.1988 354.5406,212.2925 Q354.5406,214.3863 355.2281,215.4644 Q355.9156,216.5269 357.2594,216.5269 Q357.8844,216.5269 358.4781,216.2613 Q359.0719,215.98 359.6969,215.4019 L359.6969,218.1206 Z " fill="#000000"/><text fill="#000000" font-family="sans-serif" font-size="14" lengthAdjust="spacing" textLength="30.0713" x="377.2281" y="217.3267">Disk</text><line style="stroke:#181818;stroke-width:0.5;" x1="306.65" x2="445.3775" y1="228.48" y2="228.48"/><polygon fill="none" points="316.65,237.1284,320.65,241.1284,316.65,245.1284,312.65,241.1284" style="stroke:#B38D22;stroke-width:1;"/><text fill="#000000" font-family="sans-serif" font-size="14" lengthAdjust="spacing" textLength="57.7295" x="325.65" y="245.4751">color:str</text><line style="stroke:#181818;stroke-width:1;" x1="306.65" x2="445.3775" y1="252.7769" y2="252.7769"/><ellipse cx="316.65" cy="266.4253" fill="#84BE84" rx="3" ry="3" style="stroke:#038048;stroke-width:1;"/><text fill="#000000" font-family="sans-serif" font-size="14" lengthAdjust="spacing" textLength="98.6426" x="325.65" y="269.772">get_color():str</text><ellipse cx="316.65" cy="282.7222" fill="#84BE84" rx="3" ry="3" style="stroke:#038048;stroke-width:1;"/><text fill="#000000" font-family="sans-serif" font-size="14" lengthAdjust="spacing" textLength="114.7275" x="325.65" y="286.0689">get_symbol():str</text></g><!--reverse link GameObject to Board--><g class="link" data-entity-1="GameObject" data-entity-2="Board" data-source-line="22" data-uid="lnk5" id="link_GameObject_Board"><path codeLine="22" d="M211.4278,135.3881 C199.0478,154.2081 195.02,160.32 182.25,179.74" fill="none" id="GameObject-backto-Board" style="stroke:#181818;stroke-width:1;"/><polygon fill="none" points="221.32,120.35,206.4151,132.0907,216.4405,138.6855,221.32,120.35" style="stroke:#181818;stroke-width:1;"/></g><!--reverse link GameObject to Disk--><g class="link" data-entity-1="GameObject" data-entity-2="Disk" data-source-line="23" data-uid="lnk6" id="link_GameObject_Disk"><path codeLine="23" d="M304.59,135.3895 C320.55,159.6595 329.19,172.77 344.52,196.07" fill="none" id="GameObject-backto-Disk" style="stroke:#181818;stroke-width:1;"/><polygon fill="none" points="294.7,120.35,299.5768,138.6862,309.6032,132.0929,294.7,120.35" style="stroke:#181818;stroke-width:1;"/></g><!--SRC=[RP3F2i8m3CRlUug25sNs1OOd4Rpf0uYCjejRNRUC9Q93z-vsVnbe3w7zVKc-f4eJrygmC4uHYQCguApluC4x4FwiH0OspJYo9O_WQHFE5c-3M2VnwuSqCv4oQ8F1O8-gJkRUsYcJnyuIHrsu72pbryacimn_DTzkIB4Kaxh1UXDfHDV3K2IMAgSQ3qzOmWXxqWMe8x_mLlW1_PKVbOCnSPgmyva7DEYmhrWQXo85Zdl9kqpYGAafDBeHjy7YFtSVAOVrVsXd-GK0]--></g></svg>